# xmcd
#
# Track frame offsets:
#	150
#	12851
#	34727
#
# Disc length: 607 seconds
#
# Revision: 0
# Processed by: cddbd v1.5.1PL0 Copyright (c) Steve Scherf et al.
# Submitted via: audiograbber 1.83.01
#
DISCID=18025d03
DTITLE=Mark Coonradt - Redneck Country Hall
DYEAR=2001
DGENRE=Country
TTITLE0=Redneck County Hall
TTITLE1=Dixie Medley
TTITLE2=Redneck National Anthem
EXTD=Redneck Country Hall München\nDer Gemütliche Treffpunkt Für Alle Country &
EXTD=Western Fans
EXTT0=
EXTT1=
EXTT2=
PLAYORDER=
